HIERARCHY
ROOT hip
{
  OFFSET 0 0 0
  CHANNELS 6 Xposition Yposition Zposition Zrotation Yrotation Xrotation
  JOINT abdomen
  {
    OFFSET 0 20.6881 -0.73152
    CHANNELS 3 Zrotation Xrotation Yrotation
    JOINT chest
    {
      OFFSET 0 11.7043 -0.48768
      CHANNELS 3 Zrotation Xrotation Yrotation
      JOINT neck
      {
        OFFSET 0 22.1894 -2.19456
        CHANNELS 3 Zrotation Xrotation Yrotation
        JOINT head
        {
          OFFSET -0.24384 7.07133 1.2192
          CHANNELS 3 Zrotation Xrotation Yrotation
          JOINT leftEye
          {
            OFFSET 4.14528 8.04674 8.04672
            CHANNELS 3 Zrotation Xrotation Yrotation
            End Site
            {
              OFFSET 1 0 0
            }
          }
          JOINT rightEye
          {
            OFFSET -3.6576 8.04674 8.04672
            CHANNELS 3 Zrotation Xrotation Yrotation
            End Site
            {
              OFFSET 1 0 0
            }
          }
        }
      }
      JOINT rCollar
      {
        OFFSET -2.68224 19.2634 -4.8768
        CHANNELS 3 Zrotation Xrotation Yrotation
        JOINT rShldr
        {
          OFFSET -8.77824 -1.95073 1.46304
          CHANNELS 3 Zrotation Xrotation Yrotation
          JOINT rForeArm
          {
            OFFSET -28.1742 -1.7115 0.48768
            CHANNELS 3 Zrotation Xrotation Yrotation
            JOINT rHand
            {
              OFFSET -22.5879 0.773209 7.07136
              CHANNELS 3 Zrotation Xrotation Yrotation
              JOINT rThumb1
              {
                OFFSET -1.2192 -0.487915 3.41376
                CHANNELS 3 Zrotation Xrotation Yrotation
                JOINT rThumb2
                {
                  OFFSET -3.37035 -0.52449 3.41376
                  CHANNELS 3 Zrotation Xrotation Yrotation
                  End Site
                  {
                    OFFSET -1.78271 -1.18214 1.43049
                  }
                }
              }
              JOINT rIndex1
              {
                OFFSET -7.75947 0.938293 5.60832
                CHANNELS 3 Zrotation Xrotation Yrotation
                JOINT rIndex2
                {
                  OFFSET -2.54057 -0.884171 1.56538
                  CHANNELS 3 Zrotation Xrotation Yrotation
                  End Site
                  {
                    OFFSET -1.62519 -0.234802 1.16502
                  }
                }
              }
              JOINT rMid1
              {
                OFFSET -8.24714 1.18213 3.41376
                CHANNELS 3 Zrotation Xrotation Yrotation
                JOINT rMid2
                {
                  OFFSET -3.10165 -0.590103 1.0647
                  CHANNELS 3 Zrotation Xrotation Yrotation
                  End Site
                  {
                    OFFSET -2.48547 -0.328903 0.83742
                  }
                }
              }
              JOINT rRing1
              {
                OFFSET -8.82822 0.546677 1.51678
                CHANNELS 3 Zrotation Xrotation Yrotation
                JOINT rRing2
                {
                  OFFSET -2.60934 -0.819778 -0.0198488
                  CHANNELS 3 Zrotation Xrotation Yrotation
                  End Site
                  {
                    OFFSET -2.33842 -0.294052 0.168128
                  }
                }
              }
              JOINT rPinky1
              {
                OFFSET -8.27202 -0.0477905 -0.4584
                CHANNELS 3 Zrotation Xrotation Yrotation
                JOINT rPinky2
                {
                  OFFSET -1.82734 -0.647385 -0.700984
                  CHANNELS 3 Zrotation Xrotation Yrotation
                  End Site
                  {
                    OFFSET -1.69225 -0.51767 -0.607171
                  }
                }
              }
            }
          }
        }
      }
      JOINT lCollar
      {
        OFFSET 2.68224 19.2634 -4.8768
        CHANNELS 3 Zrotation Xrotation Yrotation
        JOINT lShldr
        {
          OFFSET 8.77824 -1.95073 1.46304
          CHANNELS 3 Zrotation Xrotation Yrotation
          JOINT lForeArm
          {
            OFFSET 28.1742 -1.7115 0.48768
            CHANNELS 3 Zrotation Xrotation Yrotation
            JOINT lHand
            {
              OFFSET 22.5879 0.773209 7.07136
              CHANNELS 3 Zrotation Xrotation Yrotation
              JOINT lThumb1
              {
                OFFSET 1.2192 -0.487915 3.41376
                CHANNELS 3 Zrotation Xrotation Yrotation
                JOINT lThumb2
                {
                  OFFSET 3.37035 -0.52449 3.41376
                  CHANNELS 3 Zrotation Xrotation Yrotation
                  End Site
                  {
                    OFFSET 1.78271 -1.18214 1.43049
                  }
                }
              }
              JOINT lIndex1
              {
                OFFSET 7.75947 0.938293 5.60832
                CHANNELS 3 Zrotation Xrotation Yrotation
                JOINT lIndex2
                {
                  OFFSET 2.54057 -0.884171 1.56538
                  CHANNELS 3 Zrotation Xrotation Yrotation
                  End Site
                  {
                    OFFSET 1.62519 -0.234802 1.16502
                  }
                }
              }
              JOINT lMid1
              {
                OFFSET 8.24714 1.18213 3.41376
                CHANNELS 3 Zrotation Xrotation Yrotation
                JOINT lMid2
                {
                  OFFSET 3.10165 -0.590103 1.0647
                  CHANNELS 3 Zrotation Xrotation Yrotation
                  End Site
                  {
                    OFFSET 2.48547 -0.328903 0.83742
                  }
                }
              }
              JOINT lRing1
              {
                OFFSET 8.82822 0.546677 1.51678
                CHANNELS 3 Zrotation Xrotation Yrotation
                JOINT lRing2
                {
                  OFFSET 2.60934 -0.819778 -0.0198488
                  CHANNELS 3 Zrotation Xrotation Yrotation
                  End Site
                  {
                    OFFSET 2.33842 -0.294052 0.168128
                  }
                }
              }
              JOINT lPinky1
              {
                OFFSET 8.27202 -0.0477905 -0.4584
                CHANNELS 3 Zrotation Xrotation Yrotation
                JOINT lPinky2
                {
                  OFFSET 1.82734 -0.647385 -0.700984
                  CHANNELS 3 Zrotation Xrotation Yrotation
                  End Site
                  {
                    OFFSET 1.69225 -0.51767 -0.607171
                  }
                }
              }
            }
          }
        }
      }
    }
  }
  JOINT rButtock
  {
    OFFSET -8.77824 4.35084 1.2192
    CHANNELS 3 Zrotation Xrotation Yrotation
    JOINT rThigh
    {
      OFFSET 0 -1.70687 -2.19456
      CHANNELS 3 Zrotation Xrotation Yrotation
      JOINT rShin
      {
        OFFSET 0 -36.8199 0.73152
        CHANNELS 3 Zrotation Xrotation Yrotation
        JOINT rFoot
        {
          OFFSET 0.73152 -45.1104 -5.12064
          CHANNELS 3 Zrotation Xrotation Yrotation
          End Site
          {
            OFFSET -1.1221 -3.69964 12.103
          }
        }
      }
    }
  }
  JOINT lButtock
  {
    OFFSET 8.77824 4.35084 1.2192
    CHANNELS 3 Zrotation Xrotation Yrotation
    JOINT lThigh
    {
      OFFSET 0 -1.70687 -2.19456
      CHANNELS 3 Zrotation Xrotation Yrotation
      JOINT lShin
      {
        OFFSET 0 -36.8199 0.73152
        CHANNELS 3 Zrotation Xrotation Yrotation
        JOINT lFoot
        {
          OFFSET -0.73152 -45.1104 -5.12064
          CHANNELS 3 Zrotation Xrotation Yrotation
          End Site
          {
            OFFSET 1.1221 -3.69964 12.103
          }
        }
      }
    }
  }
}
MOTION
Frames:	5
Frame Time:	0.03333
-12.517900000000001 60.307 -40.1032 -171.542353 -21.219313 166.482822 2.251563 12.088057 155.703325 0.92009 0.154534 -136.647364 3.891137 26.920951 159.902457 -17.643293 33.883237 -142.928227 -1.056267 0.158195 -17.035026 75.177966 5.196016 6.746672 -154.906353 -6.642183 154.389082 -51.800307 22.973993 11.449161 -176.110103 21.372743 -119.602444 -6.530086 38.115834 7.440977 84.117248 -55.386399 28.896452 -90.089661 28.832465 47.651329 -146.98548 -18.980085 117.763857 36.129159 10.87555 4.210386 -2.705808 -15.284714 5.968269 5.037833 2.72236 -36.612984 42.566931 88.405841 -40.483999 -131.225728 44.686905 117.412397 35.239238 52.641657 -7.889519 -150.198596 10.448623 -141.601663 76.442249 -82.783363 95.866606 3.841686 8.720581 57.269899 -178.69367 75.234939 149.840364 5.827249 31.703854 -3.383374 170.781623 -5.375008 -94.863849 119.038864 5.85521 -60.130406 151.14669 19.397268 -108.153082 108.764145 22.415733 -45.239651 30.344429 53.876884 -26.769428 46.645811 73.701359 -20.486443 2.408869 -0.460023 -2.31337 149.751787 -24.043791 171.744977 138.552028 28.021767 152.026305 20.710205 -49.218174 19.820549 177.709772 68.832005 0.0 167.776443 55.985215 -173.736026 31.628979 -75.563518 105.517311 45.706224 35.180867 65.330498 6.292109 12.610393 8.21792 34.544722 -61.903583 -142.031683 -27.55143 -51.704489 -52.023556 -91.637911 -6.416572 146.552033
-13.7598 60.2715 -40.7202 -171.02076 -20.34585 166.591903 3.821132 11.629089 161.667788 1.115098 0.589059 -141.302053 -1.913882 28.30836 -161.338108 3.920975 39.32155 172.479297 -0.401096 0.05632 -15.9857 57.557861 8.177405 14.829588 -158.567473 -23.51549 159.044586 162.886195 -75.603285 -156.377364 -74.149068 2.285699 -14.877169 31.692485 -48.578454 26.516013 -8.805443 16.776492 0.338127 -146.597855 -37.193444 116.104635 15.805758 -16.682069 -3.484634 -5.543482 -14.105591 -6.417872 -6.539131 -0.526128 8.016659 -8.829456 -35.1137 -45.395356 -90.057327 -57.768895 -89.546602 4.625726 -24.662539 -50.21124 -148.32912 18.983103 -134.049987 4.088185 2.016862 0.683348 134.605736 55.884098 -136.613649 98.233271 12.958448 -81.410187 69.061787 -56.623214 110.170899 -77.469892 -63.853126 -68.406228 166.450315 -0.47564 -94.604051 -177.111399 -30.727399 -85.856965 137.047957 39.399944 -95.465634 -84.670833 -20.789792 -66.620577 143.359516 38.828032 -136.316957 12.27647 -61.910894 45.398076 9.067592 5.20159 -1.233015 47.713795 -81.991706 78.921802 126.555412 -30.247746 129.574607 15.16593 4.916013 -2.273332 -0.262823 7.22971 -0.0 -8.234268 -15.250316 -28.817928 -39.463282 63.222132 132.431532 144.609389 70.117059 121.101322 74.624158 41.457761 36.077675 -92.349877 -33.277118 175.721025 -48.968853 -38.810577 -77.745237 54.794858 22.31789 -151.952176
-14.927399999999999 60.170100000000005 -41.1419 -171.165654 -18.442985 166.873707 2.582087 14.265838 94.922844 -3.255531 -0.711615 -72.537851 10.458207 17.675892 94.478114 -27.078598 5.623285 -83.99868 2.986079 -0.379681 -14.489377 38.803743 7.276715 20.468513 7.904904 -33.04801 -1.721838 57.839213 14.676553 -30.166807 109.087981 -15.272473 54.314315 -179.177275 34.769884 152.999718 -1.765025 8.895565 -1.367971 -14.160365 0.933893 0.110623 -89.262277 44.541649 77.250231 -33.727205 55.357618 20.759709 -90.834516 54.34208 79.285264 -67.468274 71.831959 91.691882 -86.983263 -61.339409 -85.53611 -168.87549 33.407259 -138.93151 17.125094 40.416439 1.86299 -167.128498 56.107927 -141.357353 -3.826637 -45.625205 7.660568 103.418548 -13.566566 130.835317 -11.60648 22.047911 59.174302 -157.946042 -24.265233 -146.886753 2.6329 0.05655 5.123717 124.426753 12.135026 -101.947948 11.036174 -51.150771 21.289714 -151.160706 80.058081 132.665165 161.912585 -49.905101 -160.051084 153.422405 -49.019734 -139.908329 22.831219 60.689025 -20.005717 145.79579 18.521364 -152.25264 27.068923 -38.411933 21.234136 18.925266 -14.67828 38.238132 176.553423 69.013654 3.690792 161.490394 58.131003 -158.485382 -22.417653 -64.863496 -157.511306 -42.195144 31.118694 -53.722412 11.975908 10.892093 14.590683 17.40213 -61.750658 109.522767 55.097912 -16.400626 -3.089064 9.809847 18.784084 -91.610759
-15.9689 59.8889 -41.4146 -171.491261 -17.219137 166.580807 4.768101 18.303697 -1.311571 -0.081941 -6.752739 23.983094 6.153216 10.548235 43.113899 -13.284528 -14.274273 -37.114458 1.289375 -0.162066 -14.327683 30.380388 5.603215 20.434292 -154.920717 -5.845947 159.631593 -21.625221 -62.125082 25.537102 13.796455 59.989963 -103.123294 159.654811 -25.881482 144.150224 0.748793 4.061298 -1.45 -160.760849 -58.822729 123.129195 -113.841421 40.914598 95.39387 -6.361215 14.636388 1.386063 -1.107393 0.537436 5.063386 90.814933 87.793311 -110.161547 -164.097283 4.724439 -172.48765 -33.627709 21.965676 -8.555039 17.455189 40.82738 3.104624 167.6469 69.579034 -126.258757 -0.358205 -1.269996 -2.5714 -75.877223 9.48858 8.985438 -176.612828 -4.865836 -121.492768 -154.183609 -28.437227 -146.614629 -177.517444 -18.117973 -93.680633 -92.931296 -53.379512 -59.398465 170.337139 -81.444093 -160.968715 -13.065074 3.325796 60.348073 -2.625851 -59.279452 23.56189 152.29287 -1.969958 -117.594661 19.115792 2.257489 10.996827 -35.692687 4.560475 -11.790765 137.022801 -20.223325 121.82323 16.5881 29.274743 1.665529 25.894848 8.289768 13.286542 -40.312796 -4.540093 -4.80288 47.746556 62.558096 64.821617 98.942583 53.786662 161.074221 28.680383 15.198131 24.426071 -19.756648 -61.114305 -180.0 -31.57381 -60.314798 -69.64183 -12.988991 -11.241994 -156.538642
-16.8225 59.5823 -41.5805 -171.846541 -17.014605 165.927695 5.002523 15.509049 -157.96264 1.06372 2.984202 -179.1558 8.785485 12.206335 55.231423 -18.188685 -9.365046 -50.208868 -4.096682 0.480649 -13.377861 27.07038 4.958334 20.392053 -141.710965 38.009096 146.112125 -94.58226 31.022444 72.904279 -141.121773 20.791483 -141.211281 5.589984 5.739124 4.2182 72.10547 -49.689353 23.628714 95.235507 -84.332826 59.15839 176.116687 -76.222885 129.996136 -152.84153 0.298464 132.018091 29.12552 -60.167391 8.131027 -129.831619 62.346564 91.077687 -61.383442 -62.486827 -57.883965 -167.079871 35.067212 -133.825921 20.966423 43.134337 2.996741 -153.768291 0.063447 -127.540686 75.200266 63.894887 -79.654047 -72.544573 -9.992673 -70.414023 59.31487 45.15195 -33.764924 -30.792671 -40.335244 -29.99923 82.259425 41.307531 -42.987517 119.134986 -22.225557 -104.422607 18.620671 11.716768 15.62176 -172.114173 -50.990077 -57.940771 23.297222 62.614305 -15.063613 -156.347716 -76.329993 -149.056887 21.023823 4.742389 13.492872 126.861508 -13.02167 -155.633797 -24.264495 51.599249 14.009554 4.749231 -73.055919 19.596874 3.387847 5.472556 -4.668599 -15.90973 -14.878343 -180.0 -5.149439 -79.43033 3.123855 134.203235 -25.165493 -163.956883 -34.822258 10.081705 -17.370922 92.492406 -27.997357 -86.834838 -61.626991 -39.281256 -77.593723 -159.076794 31.505665 163.589648
